<?xml version="1.0" encoding="UTF-8"?> <svg xmlns="http://www.w3.org/2000/svg" width="904" height="123" viewBox="0 0 904 123" fill="none"> <path fill-rule="evenodd" clip-rule="evenodd" d="M407.74 32.81C405.247 39.7233 404 47.6567 404 56.61V65.45C404 74.5167 405.247 82.5633 407.74 89.59C410.233 96.5033 413.69 102.397 418.11 107.27C422.643 112.143 428.083 115.827 434.43 118.32C440.89 120.813 448.03 122.06 455.85 122.06C462.763 122.06 468.997 121.04 474.55 119C480.103 116.847 484.92 113.957 489 110.33C493.193 106.59 496.537 102.227 499.03 97.24C501.491 92.4242 503.195 87.2042 504.141 81.58C504.196 81.2481 504.249 80.9148 504.3 80.58H481.86C480.273 87.38 477.27 92.82 472.85 96.9C468.43 100.98 462.763 103.02 455.85 103.02C451.43 103.02 447.35 102.227 443.61 100.64C439.87 99.0533 436.64 96.73 433.92 93.67C431.313 90.4967 429.217 86.5867 427.63 81.94C426.157 77.18 425.42 71.6833 425.42 65.45V56.61C425.42 44.03 428.197 34.6233 433.75 28.39C439.417 22.1567 446.783 19.04 455.85 19.04C459.363 19.04 462.537 19.55 465.37 20.57C468.203 21.59 470.697 22.95 472.85 24.65C475.003 26.35 476.817 28.39 478.29 30.77C479.763 33.0367 480.953 35.4733 481.86 38.08H504.3C504.242 37.7453 504.18 37.4119 504.115 37.08C503.164 32.2423 501.469 27.7023 499.03 23.46C496.537 18.8133 493.25 14.79 489.17 11.39C485.09 7.87667 480.217 5.1 474.55 3.06C468.997 1.02 462.763 0 455.85 0C448.143 0 441.06 1.30333 434.6 3.91C428.253 6.40334 422.813 10.0867 418.28 14.96C413.747 19.8333 410.233 25.7833 407.74 32.81ZM503.095 37.08C502.159 32.4207 500.515 28.0483 498.163 23.9585L498.156 23.9458L498.149 23.9328C495.717 19.4 492.512 15.4767 488.53 12.1582L488.524 12.1531L488.517 12.1478C484.54 8.72302 479.777 6.00441 474.211 4.00089L474.205 3.99869C468.779 2.00544 462.665 1 455.85 1C448.258 1 441.303 2.28352 434.974 4.83735L434.966 4.84079C428.755 7.28078 423.441 10.8801 419.012 15.6411C414.582 20.4031 411.136 26.231 408.682 33.1444L408.681 33.1493C406.234 39.933 405 47.7479 405 56.61V65.45C405 74.4256 406.234 82.3549 408.682 89.2533C411.135 96.0548 414.526 101.829 418.846 106.593C423.273 111.351 428.584 114.948 434.791 117.388C441.122 119.831 448.138 121.06 455.85 121.06C462.662 121.06 468.773 120.056 474.197 118.064C479.645 115.951 484.354 113.122 488.335 109.583C492.434 105.927 495.699 101.665 498.136 96.7928L498.14 96.7849C500.528 92.1124 502.191 87.0459 503.126 81.58H482.646C480.977 88.1875 477.947 93.5561 473.528 97.6348C468.896 101.911 462.975 104.02 455.85 104.02C451.308 104.02 447.093 103.204 443.219 101.561C439.342 99.9156 435.99 97.5043 433.173 94.3344L433.16 94.3198L433.147 94.3047C430.451 91.0226 428.302 87.0016 426.684 82.2632L426.679 82.2495L426.675 82.2357C425.165 77.3594 424.42 71.7596 424.42 65.45V56.61C424.42 43.9053 427.221 34.2148 433.003 27.7248L433.01 27.7173C438.882 21.2583 446.526 18.04 455.85 18.04C459.46 18.04 462.75 18.5641 465.709 19.6291C468.634 20.6821 471.224 22.0921 473.47 23.8651C475.713 25.6364 477.602 27.7613 479.134 30.2342C480.522 32.3712 481.665 34.6537 482.563 37.08H503.095ZM539.987 36.89C535 38.7033 530.693 41.4233 527.067 45.05C523.553 48.5633 520.833 52.87 518.907 57.97C517.093 63.07 516.187 68.85 516.187 75.31V80.75C516.187 93.7833 519.757 103.927 526.897 111.18C534.15 118.433 544.18 122.06 556.987 122.06C563.22 122.06 568.83 121.153 573.817 119.34C578.917 117.413 583.223 114.693 586.737 111.18C590.363 107.553 593.083 103.19 594.897 98.09C596.823 92.99 597.787 87.21 597.787 80.75V75.31C597.787 62.2767 594.16 52.1333 586.907 44.88C579.767 37.6267 569.793 34 556.987 34C550.64 34 544.973 34.9633 539.987 36.89ZM573.469 118.402C578.447 116.521 582.627 113.875 586.03 110.473C589.545 106.957 592.188 102.723 593.955 97.755L593.958 97.7458L593.961 97.7366C595.838 92.7683 596.787 87.1111 596.787 80.75V75.31C596.787 62.4665 593.218 52.6056 586.2 45.5871L586.194 45.5815C579.288 38.5656 569.599 35 556.987 35C550.741 35 545.2 35.948 540.347 37.8228L540.338 37.8264L540.328 37.8298C535.474 39.595 531.294 42.2374 527.774 45.7571C524.372 49.1586 521.727 53.338 519.846 58.3142C518.079 63.2859 517.187 68.9466 517.187 75.31V80.75C517.187 93.5955 520.7 103.457 527.606 110.475C534.627 117.495 544.377 121.06 556.987 121.06C563.121 121.06 568.611 120.168 573.469 118.402ZM542.027 57.97C545.54 54.23 550.527 52.36 556.987 52.36C563.22 52.36 568.093 54.2867 571.607 58.14C575.233 61.88 577.047 67.6033 577.047 75.31V80.75C577.047 88.57 575.29 94.35 571.777 98.09C568.377 101.83 563.447 103.7 556.987 103.7C550.753 103.7 545.823 101.83 542.197 98.09C538.683 94.2367 536.927 88.4567 536.927 80.75V75.31C536.927 67.49 538.627 61.71 542.027 57.97ZM572.511 98.7689C568.872 102.768 563.642 104.7 556.987 104.7C550.54 104.7 545.33 102.758 541.479 98.7862L541.468 98.7751L541.458 98.7638C537.712 94.6551 535.927 88.5891 535.927 80.75V75.31C535.927 67.3722 537.648 61.2996 541.287 57.2973L541.292 57.2913L541.298 57.2853C545.047 53.2947 550.327 51.36 556.987 51.36C563.436 51.36 568.597 53.361 572.335 57.4549C576.206 61.4544 578.047 67.4739 578.047 75.31V80.75C578.047 88.6909 576.267 94.7666 572.511 98.7689ZM622.601 112.683C627.234 117.203 633.862 119.53 642.634 119.53H649.454V104.19H646.204C642.078 104.19 638.819 103.128 636.637 100.817C634.457 98.509 633.474 94.9743 633.474 90.44V2.53H615.754V92.48C615.754 101.369 618.083 108.052 622.601 112.683ZM621.894 113.39C617.134 108.517 614.754 101.547 614.754 92.48V1.53H634.474V90.44C634.474 94.86 635.437 98.09 637.364 100.13C639.29 102.17 642.237 103.19 646.204 103.19H650.454V120.53H642.634C633.68 120.53 626.767 118.15 621.894 113.39ZM728.85 44.88C721.71 37.6267 711.737 34 698.93 34C692.583 34 686.917 34.9633 681.93 36.89C676.943 38.7033 672.637 41.4233 669.01 45.05C665.497 48.5633 662.777 52.87 660.85 57.97C659.037 63.07 658.13 68.85 658.13 75.31V80.75C658.13 93.7833 661.7 103.927 668.84 111.18C676.093 118.433 686.123 122.06 698.93 122.06C705.163 122.06 710.773 121.153 715.76 119.34C720.86 117.413 725.167 114.693 728.68 111.18C732.307 107.553 735.027 103.19 736.84 98.09C738.767 92.99 739.73 87.21 739.73 80.75V75.31C739.73 62.2767 736.103 52.1333 728.85 44.88ZM715.412 118.402C720.39 116.521 724.571 113.875 727.973 110.473C731.489 106.957 734.131 102.723 735.898 97.755L735.901 97.7458L735.905 97.7366C737.782 92.7683 738.73 87.1111 738.73 80.75V75.31C738.73 62.4665 735.161 52.6056 728.143 45.5871L728.137 45.5815C721.231 38.5656 711.542 35 698.93 35C692.684 35 687.143 35.948 682.29 37.8228L682.281 37.8264L682.272 37.8298C677.418 39.595 673.237 42.2374 669.717 45.7571C666.316 49.1586 663.67 53.338 661.789 58.3143C660.023 63.2859 659.13 68.9466 659.13 75.31V80.75C659.13 93.596 662.644 103.458 669.55 110.476C676.571 117.496 686.321 121.06 698.93 121.06C705.064 121.06 710.554 120.168 715.412 118.402ZM684.14 98.09C680.627 94.2367 678.87 88.4567 678.87 80.75V75.31C678.87 67.49 680.57 61.71 683.97 57.97C687.483 54.23 692.47 52.36 698.93 52.36C705.163 52.36 710.037 54.2867 713.55 58.14C717.177 61.88 718.99 67.6033 718.99 75.31V80.75C718.99 88.57 717.233 94.35 713.72 98.09C710.32 101.83 705.39 103.7 698.93 103.7C692.697 103.7 687.767 101.83 684.14 98.09ZM683.236 57.2913L683.241 57.2853C686.99 53.2947 692.27 51.36 698.93 51.36C705.379 51.36 710.539 53.3608 714.278 57.4544C718.149 61.4539 719.99 67.4735 719.99 75.31V80.75C719.99 88.6912 718.21 94.7672 714.454 98.7694C710.815 102.768 705.585 104.7 698.93 104.7C692.483 104.7 687.274 102.758 683.422 98.7862L683.411 98.7751L683.401 98.7638C679.655 94.6551 677.87 88.5891 677.87 80.75V75.31C677.87 67.3722 679.592 61.2996 683.23 57.2973L683.236 57.2913ZM813.647 111.18C813.366 111.502 813.08 111.818 812.789 112.127C809.906 115.186 806.508 117.59 802.597 119.34C798.29 121.153 793.474 122.06 788.147 122.06C778.174 122.06 770.297 119 764.517 112.88C758.737 106.647 755.847 97.2967 755.847 84.83V35.53H775.567V84.83C775.567 91.0633 777.04 95.7667 779.987 98.94C782.934 102.113 786.787 103.7 791.547 103.7C797.327 103.7 801.917 102.057 805.317 98.77C808.83 95.4834 810.7 91.12 810.927 85.68V35.53H830.647V120.53H815.177L813.647 111.18ZM816.027 119.53L814.29 108.919L812.893 110.523C809.932 113.923 806.37 116.555 802.198 118.423C798.033 120.175 793.354 121.06 788.147 121.06C778.395 121.06 770.803 118.078 765.247 112.197C759.706 106.219 756.847 97.1583 756.847 84.83V36.53H774.567V84.83C774.567 91.2056 776.073 96.1948 779.254 99.6205C782.41 103.019 786.539 104.7 791.547 104.7C797.522 104.7 802.38 102.996 806.006 99.4947C809.733 96.0053 811.69 91.3833 811.926 85.7216L811.927 85.7008V36.53H829.647V119.53H816.027ZM868.29 35.53H852.82V120.53H872.54V71.23C872.54 65.45 874.353 60.86 877.98 57.46C881.72 54.06 887.5 52.36 895.32 52.36H903.82V34H895.32C889.993 34 885.12 34.9633 880.7 36.89C876.799 38.5323 873.457 40.9184 870.672 44.0481C870.382 44.374 870.098 44.708 869.82 45.05L868.29 35.53ZM902.82 35H895.32C890.116 35 885.381 35.9405 881.1 37.8067L881.088 37.8117C876.933 39.5613 873.439 42.1813 870.596 45.6806L869.187 47.4146L867.438 36.53H853.82V119.53H871.54V71.23C871.54 65.2227 873.434 60.3507 877.296 56.7305L877.302 56.7252L877.307 56.7201C881.309 53.0817 887.382 51.36 895.32 51.36H902.82V35Z" fill="#FFBCBC"></path> <path fill-rule="evenodd" clip-rule="evenodd" d="M4.38844 32.81C1.8951 39.7233 0.648438 47.6567 0.648438 56.61V65.45C0.648438 74.5167 1.8951 82.5633 4.38844 89.59C6.88177 96.5033 10.3384 102.397 14.7584 107.27C19.2918 112.143 24.7318 115.827 31.0784 118.32C37.5384 120.813 44.6784 122.06 52.4984 122.06C59.4118 122.06 65.6451 121.04 71.1984 119C76.7518 116.847 81.5684 113.957 85.6484 110.33C89.8418 106.59 93.1851 102.227 95.6784 97.24C98.1398 92.4242 99.8433 87.2042 100.789 81.58C100.845 81.2481 100.898 80.9148 100.948 80.58H78.5084C76.9218 87.38 73.9184 92.82 69.4984 96.9C65.0784 100.98 59.4118 103.02 52.4984 103.02C48.0784 103.02 43.9984 102.227 40.2584 100.64C36.5184 99.0533 33.2884 96.73 30.5684 93.67C27.9618 90.4967 25.8651 86.5867 24.2784 81.94C22.8051 77.18 22.0684 71.6833 22.0684 65.45V56.61C22.0684 44.03 24.8451 34.6233 30.3984 28.39C36.0651 22.1567 43.4318 19.04 52.4984 19.04C56.0118 19.04 59.1851 19.55 62.0184 20.57C64.8518 21.59 67.3451 22.95 69.4984 24.65C71.6518 26.35 73.4651 28.39 74.9384 30.77C76.4118 33.0367 77.6018 35.4733 78.5084 38.08H100.948C100.89 37.7453 100.829 37.4119 100.763 37.08C99.8127 32.2423 98.1177 27.7023 95.6784 23.46C93.1851 18.8133 89.8984 14.79 85.8184 11.39C81.7384 7.87667 76.8651 5.1 71.1984 3.06C65.6451 1.02 59.4118 0 52.4984 0C44.7918 0 37.7084 1.30333 31.2484 3.91C24.9018 6.40334 19.4618 10.0867 14.9284 14.96C10.3951 19.8333 6.88177 25.7833 4.38844 32.81ZM99.7437 37.08C98.8071 32.4207 97.1632 28.0483 94.8115 23.9585L94.8042 23.9458L94.7973 23.9328C92.365 19.4 89.1605 15.4767 85.1783 12.1582L85.172 12.1531L85.1659 12.1478C81.1888 8.72302 76.425 6.00441 70.8597 4.00089L70.8536 3.99869C65.4276 2.00544 59.3136 1 52.4984 1C44.9064 1 37.9517 2.28352 31.6226 4.83735L31.6141 4.84079C25.4032 7.28078 20.0895 10.8801 15.6606 15.6411C11.2309 20.4031 7.78402 26.231 5.33087 33.1444L5.32914 33.1493C2.88255 39.933 1.64844 47.7479 1.64844 56.61V65.45C1.64844 74.4256 2.88258 82.3549 5.33005 89.2533C7.78337 96.0548 11.1749 101.829 15.4948 106.593C19.9218 111.351 25.2328 114.948 31.4398 117.388C37.7707 119.831 44.7863 121.06 52.4984 121.06C59.3102 121.06 65.4216 120.056 70.8456 118.064C76.2939 115.951 81.0026 113.122 84.9834 109.583C89.0827 105.927 92.3479 101.665 94.784 96.7928L94.788 96.7849C97.1762 92.1124 98.8396 87.0459 99.7747 81.58H79.2946C77.6252 88.1875 74.5954 93.5561 70.1767 97.6348C65.5444 101.911 59.6229 104.02 52.4984 104.02C47.9561 104.02 43.7419 103.204 39.8679 101.561C35.9903 99.9156 32.6387 97.5043 29.821 94.3344L29.8081 94.3198L29.7957 94.3047C27.0997 91.0226 24.9501 87.0016 23.3321 82.2632L23.3274 82.2495L23.3232 82.2357C21.8138 77.3594 21.0684 71.7596 21.0684 65.45V56.61C21.0684 43.9053 23.8698 34.2148 29.6518 27.7248L29.6585 27.7173C35.5303 21.2583 43.1742 18.04 52.4984 18.04C56.1084 18.04 59.3987 18.5641 62.3572 19.6291C65.2821 20.6821 67.8723 22.0921 70.1181 23.8651C72.3617 25.6364 74.2506 27.7613 75.7828 30.2342C77.1709 32.3712 78.3139 34.6537 79.2119 37.08H99.7437ZM120.825 75.48C117.765 77.86 115.498 80.8633 114.025 84.49C112.665 88.0033 111.985 91.97 111.985 96.39C111.985 104.437 114.365 110.727 119.125 115.26C123.885 119.793 130.855 122.06 140.035 122.06C146.042 122.06 151.368 120.927 156.015 118.66C160.347 116.597 163.928 113.69 166.758 109.937C167.038 109.567 167.31 109.187 167.575 108.8L169.615 120.53H185.085V62.73C185.085 54.0033 182.252 47.0333 176.585 41.82C170.919 36.6067 162.419 34 151.085 34C139.185 34 130.345 36.4933 124.565 41.48C119.149 46.1377 116.114 52.0377 115.461 59.18C115.43 59.5107 115.405 59.844 115.385 60.18H136.805C137.258 57.2333 138.562 54.8533 140.715 53.04C142.868 51.2267 146.325 50.32 151.085 50.32C156.185 50.32 159.812 51.3967 161.965 53.55C164.232 55.59 165.365 58.65 165.365 62.73V67.83H151.085C143.945 67.83 137.882 68.51 132.895 69.87C128.022 71.1167 123.998 72.9867 120.825 75.48ZM162.654 52.8243C165.182 55.1118 166.365 58.478 166.365 62.73V68.83H151.085C144.003 68.83 138.034 69.5051 133.158 70.8348L133.151 70.8369L133.143 70.8388C128.372 72.0593 124.484 73.8773 121.443 76.2663L121.439 76.2694C118.521 78.5387 116.363 81.3965 114.955 84.8586C113.648 88.2369 112.985 92.0757 112.985 96.39C112.985 104.229 115.296 110.232 119.815 114.536C124.326 118.832 131.009 121.06 140.035 121.06C145.914 121.06 151.087 119.951 155.577 117.761L155.585 117.757C160.188 115.566 163.904 112.395 166.75 108.235L168.139 106.205L170.456 119.53H184.085V62.73C184.085 54.2418 181.34 47.5537 175.908 42.5559C170.497 37.5775 162.284 35 151.085 35C139.297 35 130.739 37.4742 125.218 42.2372L125.217 42.2382C120.025 46.7033 117.113 52.3325 116.465 59.18H135.972C136.569 56.3907 137.934 54.0747 140.071 52.2751C142.493 50.2356 146.239 49.32 151.085 49.32C156.268 49.32 160.218 50.4037 162.654 52.8243ZM152.48 105.137L152.47 105.141C149.732 106.212 146.717 106.74 143.435 106.74C139.856 106.74 136.92 105.782 134.76 103.748L134.749 103.738L134.738 103.727C132.702 101.691 131.725 98.9803 131.725 95.71C131.725 91.5897 133.195 88.2367 136.165 85.7618C139.169 83.2586 144.237 82.13 151.085 82.13H166.365V85.68C166.365 88.5439 165.767 91.2413 164.568 93.7599C163.384 96.2463 161.787 98.4926 159.782 100.497L159.772 100.508L159.761 100.518C157.737 102.423 155.308 103.959 152.49 105.133L152.48 105.137ZM151.085 83.13C144.285 83.13 139.525 84.2634 136.805 86.53C134.085 88.7967 132.725 91.8567 132.725 95.71C132.725 98.77 133.632 101.207 135.445 103.02C137.372 104.833 140.035 105.74 143.435 105.74C146.609 105.74 149.499 105.23 152.105 104.21C154.825 103.077 157.148 101.603 159.075 99.79C161.002 97.8633 162.532 95.71 163.665 93.33C164.798 90.95 165.365 88.4 165.365 85.68V83.13H151.085ZM221.725 35.53H206.255V120.53H225.975V71.23C225.975 65.45 227.789 60.86 231.415 57.46C235.155 54.06 240.935 52.36 248.755 52.36H257.255V34H248.755C243.429 34 238.555 34.9633 234.135 36.89C230.235 38.5323 226.892 40.9184 224.107 44.0481C223.817 44.374 223.533 44.708 223.255 45.05L221.725 35.53ZM256.255 35H248.755C243.552 35 238.816 35.9405 234.535 37.8067L234.524 37.8117C230.368 39.5613 226.875 42.1813 224.032 45.6806L222.623 47.4146L220.873 36.53H207.255V119.53H224.975V71.23C224.975 65.2227 226.87 60.3507 230.732 56.7305L230.737 56.7252L230.743 56.7201C234.745 53.0817 240.818 51.36 248.755 51.36H256.255V35ZM278.683 112.683C283.316 117.203 289.944 119.53 298.716 119.53H305.536V104.19H302.286C298.16 104.19 294.901 103.128 292.719 100.817C290.539 98.509 289.556 94.9743 289.556 90.44V2.53H271.836V92.48C271.836 101.369 274.165 108.052 278.683 112.683ZM277.976 113.39C273.216 108.517 270.836 101.547 270.836 92.48V1.53H290.556V90.44C290.556 94.86 291.519 98.09 293.446 100.13C295.372 102.17 298.319 103.19 302.286 103.19H306.536V120.53H298.716C289.762 120.53 282.849 118.15 277.976 113.39ZM323.862 75.48C320.802 77.86 318.536 80.8633 317.062 84.49C315.702 88.0033 315.022 91.97 315.022 96.39C315.022 104.437 317.402 110.727 322.162 115.26C326.922 119.793 333.892 122.06 343.072 122.06C349.079 122.06 354.406 120.927 359.052 118.66C363.384 116.597 366.965 113.69 369.795 109.937C370.075 109.567 370.347 109.187 370.612 108.8L372.652 120.53H388.122V62.73C388.122 54.0033 385.289 47.0333 379.622 41.82C373.956 36.6067 365.456 34 354.122 34C342.222 34 333.382 36.4933 327.602 41.48C322.186 46.1377 319.152 52.0377 318.498 59.18C318.467 59.5107 318.442 59.844 318.422 60.18H339.842C340.296 57.2333 341.599 54.8533 343.752 53.04C345.906 51.2267 349.362 50.32 354.122 50.32C359.222 50.32 362.849 51.3967 365.002 53.55C367.269 55.59 368.402 58.65 368.402 62.73V67.83H354.122C346.982 67.83 340.919 68.51 335.932 69.87C331.059 71.1167 327.036 72.9867 323.862 75.48ZM365.691 52.8243C368.219 55.1118 369.402 58.478 369.402 62.73V68.83H354.122C347.04 68.83 341.071 69.5051 336.195 70.8348L336.188 70.8369L336.18 70.8388C331.409 72.0593 327.521 73.8773 324.48 76.2663L324.476 76.2694C321.558 78.5387 319.4 81.3965 317.992 84.8586C316.685 88.2369 316.022 92.0757 316.022 96.39C316.022 104.229 318.333 110.232 322.852 114.536C327.363 118.832 334.046 121.06 343.072 121.06C348.952 121.06 354.124 119.951 358.614 117.761L358.622 117.757C363.225 115.566 366.941 112.395 369.787 108.235L371.176 106.205L373.493 119.53H387.122V62.73C387.122 54.2418 384.378 47.5537 378.945 42.5559C373.534 37.5775 365.321 35 354.122 35C342.334 35 333.776 37.4742 328.255 42.2372L328.254 42.2382C323.062 46.7033 320.15 52.3325 319.502 59.18H339.009C339.606 56.3907 340.971 54.0747 343.108 52.2751C345.53 50.2356 349.276 49.32 354.122 49.32C359.305 49.32 363.256 50.4037 365.691 52.8243ZM355.517 105.137L355.507 105.141C352.769 106.212 349.754 106.74 346.472 106.74C342.893 106.74 339.957 105.782 337.797 103.748L337.786 103.738L337.775 103.727C335.739 101.691 334.762 98.9803 334.762 95.71C334.762 91.5897 336.232 88.2367 339.202 85.7618C342.206 83.2586 347.274 82.13 354.122 82.13H369.402V85.68C369.402 88.5439 368.804 91.2413 367.605 93.7599C366.421 96.2463 364.824 98.4926 362.819 100.497L362.809 100.508L362.798 100.518C360.774 102.423 358.345 103.959 355.527 105.133L355.517 105.137ZM362.112 99.79C360.186 101.603 357.862 103.077 355.142 104.21C352.536 105.23 349.646 105.74 346.472 105.74C343.072 105.74 340.409 104.833 338.482 103.02C336.669 101.207 335.762 98.77 335.762 95.71C335.762 91.8567 337.122 88.7967 339.842 86.53C342.562 84.2634 347.322 83.13 354.122 83.13H368.402V85.68C368.402 88.4 367.836 90.95 366.702 93.33C365.569 95.71 364.039 97.8633 362.112 99.79Z" fill="#FFBCBC"></path> </svg> 