<?xml version="1.0" encoding="UTF-8"?> <svg xmlns="http://www.w3.org/2000/svg" width="546" height="142" viewBox="0 0 546 142" fill="none"> <path fill-rule="evenodd" clip-rule="evenodd" d="M40.6849 78.5113L80.5387 139H108.111L55.7607 61.9554L103.935 1H77.2878L23 70.5049V1H1V139H23V100.245L40.6849 78.5113ZM76.8 0H106L57 62L110 140H80L40.6 80.2L24 100.6V140H0V0H24V67.6L76.8 0ZM144.153 40H125.953V140H149.153V82C149.153 75.2 151.286 69.8 155.553 65.8C159.953 61.8 166.753 59.8 175.953 59.8H185.953V38.2H175.953C169.686 38.2 163.953 39.3333 158.753 41.6C154.093 43.562 150.11 46.4261 146.804 50.1924C146.515 50.5214 146.232 50.8573 145.953 51.2L144.153 40ZM184.953 39.2H175.953C169.809 39.2 164.214 40.3105 159.153 42.5167L159.141 42.5217C154.226 44.5913 150.092 47.6913 146.729 51.8306L145.32 53.5646L143.301 41H126.953V139H148.153V82C148.153 74.9727 150.368 69.2907 154.869 65.0705L154.875 65.0652L154.88 65.0601C159.543 60.8217 166.635 58.8 175.953 58.8H184.953V39.2ZM224.177 116C220.337 112.416 218.033 106.683 217.265 98.8C217.233 98.4704 217.203 98.1371 217.177 97.8H287.977V90C287.977 73.3333 283.777 60.5333 275.377 51.6C266.977 42.6667 255.51 38.2 240.977 38.2C233.777 38.2 227.31 39.3333 221.577 41.6C215.843 43.7333 210.91 46.9333 206.777 51.2C202.643 55.3333 199.443 60.4 197.177 66.4C195.043 72.4 193.977 79.2 193.977 86.8V93.2C193.977 100.8 195.043 107.6 197.177 113.6C199.443 119.6 202.643 124.733 206.777 129C210.91 133.133 215.843 136.333 221.577 138.6C227.31 140.733 233.777 141.8 240.977 141.8C247.91 141.8 254.043 141 259.377 139.4C264.71 137.667 269.243 135.333 272.977 132.4C276.71 129.467 279.71 126 281.977 122C284.08 118.287 285.668 114.287 286.738 110C286.82 109.668 286.9 109.335 286.977 109H262.977C261.91 112.333 259.71 115.267 256.377 117.8C253.177 120.2 248.043 121.4 240.977 121.4C233.777 121.4 228.177 119.6 224.177 116ZM263.689 110C262.476 113.273 260.219 116.136 256.982 118.596L256.977 118.6C253.514 121.197 248.112 122.4 240.977 122.4C233.614 122.4 227.746 120.558 223.508 116.743L223.501 116.737L223.494 116.731C219.235 112.756 216.856 106.398 216.18 97.8791L216.094 96.8H286.977V90C286.977 73.495 282.819 60.9748 274.648 52.285C266.472 43.5898 255.289 39.2 240.977 39.2C233.882 39.2 227.543 40.3167 221.944 42.53L221.935 42.5337L221.925 42.5372C216.327 44.6202 211.521 47.7394 207.495 51.8958L207.489 51.9015L207.484 51.9071C203.462 55.9286 200.337 60.868 198.115 66.7443C196.029 72.6159 194.977 79.2966 194.977 86.8V93.2C194.977 100.703 196.029 107.384 198.116 113.256C200.337 119.132 203.463 124.141 207.489 128.298C211.517 132.325 216.328 135.448 221.935 137.666C227.536 139.749 233.879 140.8 240.977 140.8C247.83 140.8 253.86 140.009 259.078 138.446C264.315 136.742 268.735 134.461 272.359 131.614C275.993 128.758 278.906 125.39 281.107 121.507C283.125 117.946 284.658 114.111 285.706 110H263.689ZM216.417 80.4L216.587 79.2535C217.674 71.9158 220.211 66.3878 224.324 62.8426C228.425 59.3072 234.017 57.6 240.977 57.6C247.923 57.6 253.508 59.2343 257.608 62.6245C261.886 66.0503 264.419 71.6751 265.369 79.276L265.509 80.4H216.417ZM256.977 63.4C253.11 60.2 247.777 58.6 240.977 58.6C234.177 58.6 228.843 60.2667 224.977 63.6C221.291 66.777 218.878 71.7104 217.736 78.4C217.68 78.7291 217.627 79.0624 217.577 79.4H264.377C264.334 79.0623 264.289 78.729 264.241 78.4C263.217 71.4553 260.796 66.4553 256.977 63.4ZM369.56 63.0293L390.79 139H417.258L442.738 41H422.019L404.099 115.387L383.471 41H357.017L339.603 112.437L337.663 112.449L319.256 41H297.35L324.79 139H351.244L369.56 63.0293ZM352.031 140H324.031L296.031 40H320.031L338.631 112.2L356.231 40H384.231L404.031 111.4L421.231 40H444.031L418.031 140H390.031L369.631 67L352.031 140ZM464.784 51.2C460.651 55.3333 457.451 60.4 455.184 66.4C453.051 72.4 451.984 79.2 451.984 86.8V93.2C451.984 100.8 453.051 107.6 455.184 113.6C457.451 119.6 460.651 124.733 464.784 129C468.918 133.133 473.851 136.333 479.584 138.6C485.318 140.733 491.784 141.8 498.984 141.8C505.918 141.8 512.051 141 517.384 139.4C522.718 137.667 527.251 135.333 530.984 132.4C534.718 129.467 537.718 126 539.984 122C542.088 118.287 543.675 114.287 544.745 110C544.828 109.668 544.908 109.335 544.984 109H520.984C519.918 112.333 517.718 115.267 514.384 117.8C511.184 120.2 506.051 121.4 498.984 121.4C491.784 121.4 486.184 119.6 482.184 116C478.345 112.416 476.041 106.683 475.273 98.8C475.241 98.4704 475.211 98.1371 475.184 97.8H545.984V90C545.984 73.3333 541.784 60.5333 533.384 51.6C524.984 42.6667 513.518 38.2 498.984 38.2C491.784 38.2 485.318 39.3333 479.584 41.6C473.851 43.7333 468.918 46.9333 464.784 51.2ZM544.984 96.8V90C544.984 73.495 540.827 60.9748 532.656 52.285C524.48 43.5898 513.297 39.2 498.984 39.2C491.889 39.2 485.55 40.3167 479.952 42.53L479.943 42.5337L479.933 42.5372C474.335 44.6202 469.529 47.7394 465.503 51.8958L465.497 51.9015L465.491 51.9071C461.47 55.9286 458.345 60.868 456.123 66.7443C454.037 72.6159 452.984 79.2966 452.984 86.8V93.2C452.984 100.703 454.037 107.384 456.123 113.256C458.344 119.132 461.471 124.141 465.497 128.299C469.525 132.325 474.336 135.448 479.942 137.666C485.544 139.749 491.887 140.8 498.984 140.8C505.838 140.8 511.868 140.009 517.086 138.445C522.323 136.742 526.743 134.461 530.367 131.614C534.001 128.758 536.914 125.39 539.114 121.507C541.132 117.946 542.666 114.111 543.714 110H521.697C520.484 113.273 518.226 116.136 514.989 118.596L514.984 118.6C511.522 121.197 506.12 122.4 498.984 122.4C491.622 122.4 485.754 120.558 481.515 116.743L481.509 116.737L481.502 116.731C477.243 112.756 474.864 106.398 474.188 97.8791L474.102 96.8H544.984ZM474.425 80.4L474.595 79.2535C475.682 71.9158 478.219 66.3878 482.331 62.8426C486.432 59.3072 492.025 57.6 498.984 57.6C505.931 57.6 511.516 59.2342 515.616 62.6244C519.893 66.0502 522.427 71.675 523.377 79.276L523.517 80.4H474.425ZM514.984 63.4C511.118 60.2 505.784 58.6 498.984 58.6C492.184 58.6 486.851 60.2667 482.984 63.6C479.299 66.777 476.885 71.7104 475.744 78.4C475.688 78.7291 475.634 79.0624 475.584 79.4H522.384C522.342 79.0623 522.297 78.729 522.248 78.4C521.225 71.4553 518.803 66.4553 514.984 63.4Z" fill="#FFBCBC"></path> </svg> 