<?xml version="1.0" encoding="UTF-8"?> <svg xmlns="http://www.w3.org/2000/svg" width="1035" height="146" viewBox="0 0 1035 146" fill="none"> <path fill-rule="evenodd" clip-rule="evenodd" d="M28.8 0H0V112H19.2V21.44L25.76 38.4L44 82.4H63.2L81.28 38.4L88 21.28V112H107.2V0H78.72L53.76 60.64L28.8 0ZM79.3898 1L53.76 63.2673L28.1302 1H1V111H18.2V21.44L20.1327 21.0793L26.6883 38.028L44.668 81.4H62.5298L80.3491 38.0346L87.0691 20.9146L89 21.28V111H106.2V1H79.3898ZM146.331 33.28C141.638 34.9867 137.585 37.5467 134.171 40.96C130.865 44.2667 128.305 48.32 126.491 53.12C124.785 57.92 123.931 63.36 123.931 69.44V74.56C123.931 86.8267 127.291 96.3733 134.011 103.2C140.838 110.027 150.278 113.44 162.331 113.44C168.198 113.44 173.478 112.587 178.171 110.88C182.971 109.067 187.025 106.507 190.331 103.2C193.745 99.7867 196.305 95.68 198.011 90.88C199.825 86.08 200.731 80.64 200.731 74.56V69.44C200.731 57.1733 197.318 47.6267 190.491 40.8C183.771 33.9733 174.385 30.56 162.331 30.56C156.358 30.56 151.025 31.4667 146.331 33.28ZM177.825 109.942C182.502 108.174 186.429 105.688 189.624 102.493C192.927 99.1904 195.409 95.213 197.069 90.545L197.072 90.5358L197.076 90.5266C198.839 85.8583 199.731 80.5411 199.731 74.56V69.44C199.731 57.3632 196.376 48.0989 189.784 41.5071L189.779 41.5015C183.292 34.9123 174.19 31.56 162.331 31.56C156.459 31.56 151.251 32.4514 146.692 34.2128L146.682 34.2164L146.673 34.2198C142.112 35.8783 138.185 38.3607 134.878 41.6671C131.684 44.8619 129.198 48.788 127.43 53.4642C125.771 58.1359 124.931 63.4566 124.931 69.44V74.56C124.931 86.6394 128.235 95.9046 134.721 102.496C141.316 109.089 150.475 112.44 162.331 112.44C168.099 112.44 173.259 111.601 177.825 109.942ZM148.251 53.12C151.558 49.6 156.251 47.84 162.331 47.84C168.198 47.84 172.785 49.6533 176.091 53.28C179.505 56.8 181.211 62.1867 181.211 69.44V74.56C181.211 81.92 179.558 87.36 176.251 90.88C173.051 94.4 168.411 96.16 162.331 96.16C156.465 96.16 151.825 94.4 148.411 90.88C145.105 87.2533 143.451 81.8133 143.451 74.56V69.44C143.451 62.08 145.051 56.64 148.251 53.12ZM176.986 91.5589C173.547 95.3378 168.606 97.16 162.331 97.16C156.251 97.16 151.331 95.3279 147.693 91.5761L147.683 91.5651L147.672 91.5538C144.133 87.6717 142.451 81.9458 142.451 74.56V69.44C142.451 61.9622 144.073 56.2296 147.511 52.4473L147.517 52.4413L147.522 52.4353C151.065 48.6647 156.051 46.84 162.331 46.84C168.413 46.84 173.288 48.7277 176.82 52.595C180.477 56.3744 182.211 62.0572 182.211 69.44V74.56C182.211 82.0409 180.535 87.7766 176.986 91.5589ZM265.94 38.942C260.381 33.354 252.928 30.56 243.58 30.56C238.993 30.56 234.78 31.4133 230.94 33.12C227.1 34.72 223.74 37.1733 220.86 40.48C218.087 43.7867 215.9 47.84 214.3 52.64C212.7 57.44 211.9 63.04 211.9 69.44V74.56C211.9 81.0667 212.647 86.7733 214.14 91.68C215.74 96.48 217.927 100.533 220.7 103.84C223.58 107.04 226.94 109.44 230.78 111.04C234.62 112.64 238.887 113.44 243.58 113.44C249.127 113.44 254.087 112.427 258.46 110.4C262.411 108.569 265.709 105.911 268.355 102.425C268.637 102.053 268.912 101.671 269.18 101.28L270.94 112H285.5V0H266.94V40C266.614 39.6368 266.28 39.2842 265.94 38.942ZM267.94 1V42.6096L266.196 40.6683C260.766 34.623 253.27 31.56 243.58 31.56C239.12 31.56 235.047 32.389 231.346 34.0338L231.335 34.0386L231.325 34.0431C227.637 35.5797 224.403 37.9364 221.62 41.1302C218.943 44.3241 216.814 48.259 215.249 52.9562C213.69 57.6314 212.9 63.1204 212.9 69.44V74.56C212.9 80.9876 213.637 86.5882 215.093 91.3764C216.657 96.0652 218.783 99.9941 221.455 103.184C224.237 106.271 227.472 108.578 231.165 110.117C234.868 111.66 239.002 112.44 243.58 112.44C249.003 112.44 253.816 111.45 258.04 109.493C262.246 107.543 265.681 104.623 268.355 100.715L269.763 98.6573L271.789 111H284.5V1H267.94ZM262.384 91.7303L262.378 91.7358C258.872 95.3552 254.447 97.16 249.18 97.16C243.503 97.16 238.898 95.312 235.48 91.5527C232.042 87.7705 230.42 82.0378 230.42 74.56V69.44C230.42 61.6746 231.975 55.8675 235.324 52.2826C238.649 48.6177 243.317 46.84 249.18 46.84C254.572 46.84 259.058 48.8191 262.559 52.7656C266.2 56.6422 267.94 62.2576 267.94 69.44V75.6959L267.939 75.7117C267.721 82.5798 265.918 87.9683 262.389 91.7247L262.384 91.7303ZM261.82 53.44C258.513 49.7067 254.3 47.84 249.18 47.84C243.527 47.84 239.153 49.5467 236.06 52.96C232.967 56.2667 231.42 61.76 231.42 69.44V74.56C231.42 81.92 233.02 87.36 236.22 90.88C239.42 94.4 243.74 96.16 249.18 96.16C254.193 96.16 258.353 94.4533 261.66 91.04C264.967 87.52 266.727 82.4 266.94 75.68V69.44C266.94 62.4 265.233 57.0667 261.82 53.44ZM311.671 40.96C308.365 44.2667 305.805 48.32 303.991 53.12C302.285 57.92 301.431 63.36 301.431 69.44V74.56C301.431 80.64 302.285 86.08 303.991 90.88C305.805 95.68 308.365 99.7867 311.671 103.2C314.978 106.507 318.925 109.067 323.511 110.88C328.098 112.587 333.271 113.44 339.031 113.44C344.578 113.44 349.485 112.8 353.751 111.52C358.018 110.133 361.645 108.267 364.631 105.92C367.618 103.573 370.018 100.8 371.831 97.6C373.482 94.6876 374.734 91.5542 375.59 88.2C375.674 87.8688 375.755 87.5355 375.831 87.2H356.631C355.778 89.8667 354.018 92.2133 351.351 94.24C348.791 96.16 344.685 97.12 339.031 97.12C333.271 97.12 328.791 95.68 325.591 92.8C322.552 89.9636 320.716 85.4436 320.082 79.24C320.048 78.9114 320.018 78.5781 319.991 78.24H376.631V72C376.631 58.6667 373.271 48.4267 366.551 41.28C359.831 34.1333 350.658 30.56 339.031 30.56C333.271 30.56 328.098 31.4667 323.511 33.28C318.925 34.9867 314.978 37.5467 311.671 40.96ZM375.631 77.24V72C375.631 58.8283 372.314 48.8681 365.823 41.965C359.327 35.0565 350.437 31.56 339.031 31.56C333.376 31.56 328.331 32.45 323.879 34.21L323.869 34.2137L323.86 34.2172C319.409 35.8735 315.589 38.3527 312.389 41.6558L312.384 41.6615L312.378 41.6671C309.184 44.8619 306.698 48.788 304.93 53.4642C303.271 58.1359 302.431 63.4566 302.431 69.44V74.56C302.431 80.5435 303.271 85.8642 304.93 90.5359C306.698 95.2112 309.184 99.1933 312.383 102.497C315.584 105.698 319.409 108.182 323.869 109.946C328.324 111.602 333.374 112.44 339.031 112.44C344.499 112.44 349.302 111.809 353.453 110.565C357.623 109.209 361.137 107.394 364.013 105.134C366.901 102.865 369.214 100.19 370.961 97.107C372.526 94.3461 373.725 91.3781 374.557 88.2H357.34C356.343 90.8058 354.528 93.082 351.956 95.0362L351.951 95.04C349.129 97.1567 344.754 98.12 339.031 98.12C333.109 98.12 328.36 96.6377 324.922 93.5433L324.916 93.5372L324.909 93.5311C321.449 90.3022 319.537 85.1583 318.994 78.3191L318.909 77.24H375.631ZM319.152 64.52L319.322 63.3735C320.196 57.4758 322.239 53.0012 325.578 50.1226C328.906 47.2539 333.432 45.88 339.031 45.88C344.618 45.88 349.136 47.1942 352.463 49.9444C355.94 52.7302 357.98 57.2883 358.744 63.396L358.884 64.52H319.152ZM351.831 50.72C348.738 48.16 344.471 46.88 339.031 46.88C333.591 46.88 329.325 48.2133 326.231 50.88C323.32 53.3899 321.401 57.2699 320.473 62.52C320.415 62.848 320.361 63.1813 320.311 63.52H357.751C357.709 63.1812 357.663 62.8478 357.612 62.52C356.777 57.0681 354.85 53.1348 351.831 50.72ZM407.197 32H392.637V112H411.197V65.6C411.197 60.16 412.904 55.84 416.318 52.64C419.837 49.44 425.277 47.84 432.637 47.84H440.637V30.56H432.637C427.624 30.56 423.037 31.4667 418.878 33.28C415.23 34.8158 412.101 37.0426 409.49 39.9605C409.199 40.2851 408.915 40.6183 408.637 40.96L407.197 32ZM439.637 31.56H432.637C427.747 31.56 423.298 32.4438 419.277 34.1967L419.266 34.2017C415.363 35.8446 412.083 38.3047 409.414 41.5906L408.005 43.3246L406.345 33H393.637V111H410.197V65.6C410.197 59.9327 411.985 55.3307 415.634 51.9105L415.639 51.9052L415.645 51.9001C419.427 48.4617 425.16 46.84 432.637 46.84H439.637V31.56ZM467.979 32H453.419V112H471.979V64.8C472.192 59.68 473.952 55.5733 477.259 52.48C480.672 49.3867 485.259 47.84 491.019 47.84C495.925 47.84 499.765 49.3333 502.539 52.32C505.419 55.3067 506.859 59.7333 506.859 65.6V112H525.419V65.6C525.419 53.8667 522.645 45.12 517.099 39.36C511.659 33.4933 504.032 30.56 494.219 30.56C484.156 30.56 476.176 33.7079 470.278 40.0036C469.986 40.3147 469.7 40.6335 469.419 40.96L467.979 32ZM524.419 111V65.6C524.419 54.0055 521.677 45.5559 516.378 40.0536L516.372 40.0469L516.365 40.0399C511.156 34.4223 503.822 31.56 494.219 31.56C483.9 31.56 475.93 34.935 470.176 41.6127L468.773 43.242L467.127 33H454.419V111H470.979V64.7792L470.98 64.7584C471.202 59.4138 473.052 55.0464 476.576 51.7497L476.581 51.7443L476.587 51.739C480.227 48.4401 485.075 46.84 491.019 46.84C496.138 46.84 500.265 48.4058 503.265 51.6325C506.383 54.8707 507.859 59.5863 507.859 65.6V111H524.419ZM565.45 95.04V0H546.25V112H615.05V95.04H565.45ZM614.05 96.04H564.45V1H547.25V111H614.05V96.04ZM631.671 40.96C628.365 44.2667 625.805 48.32 623.991 53.12C622.285 57.92 621.431 63.36 621.431 69.44V74.56C621.431 80.64 622.285 86.08 623.991 90.88C625.805 95.68 628.365 99.7867 631.671 103.2C634.978 106.507 638.925 109.067 643.511 110.88C648.098 112.587 653.271 113.44 659.031 113.44C664.578 113.44 669.485 112.8 673.751 111.52C678.018 110.133 681.645 108.267 684.631 105.92C687.618 103.573 690.018 100.8 691.831 97.6C693.482 94.6876 694.734 91.5542 695.59 88.2C695.674 87.8688 695.755 87.5355 695.831 87.2H676.631C675.778 89.8667 674.018 92.2133 671.351 94.24C668.791 96.16 664.685 97.12 659.031 97.12C653.271 97.12 648.791 95.68 645.591 92.8C642.552 89.9636 640.716 85.4436 640.082 79.24C640.048 78.9114 640.018 78.5781 639.991 78.24H696.631V72C696.631 58.6667 693.271 48.4267 686.551 41.28C679.831 34.1333 670.658 30.56 659.031 30.56C653.271 30.56 648.098 31.4667 643.511 33.28C638.925 34.9867 634.978 37.5467 631.671 40.96ZM695.631 77.24V72C695.631 58.8283 692.314 48.8681 685.823 41.965C679.327 35.0565 670.437 31.56 659.031 31.56C653.376 31.56 648.331 32.45 643.879 34.21L643.869 34.2137L643.86 34.2172C639.409 35.8735 635.589 38.3527 632.389 41.6558L632.384 41.6615L632.378 41.6671C629.184 44.8616 626.698 48.7874 624.931 53.463C623.271 58.135 622.431 63.4561 622.431 69.44V74.56C622.431 80.544 623.271 85.8653 624.931 90.5374C626.698 95.212 629.184 99.1938 632.383 102.498C635.584 105.698 639.409 108.182 643.869 109.946C648.324 111.602 653.374 112.44 659.031 112.44C664.499 112.44 669.302 111.809 673.453 110.565C677.623 109.209 681.137 107.394 684.013 105.134C686.901 102.865 689.214 100.19 690.961 97.107C692.526 94.3461 693.725 91.3781 694.557 88.2H677.34C676.343 90.8058 674.528 93.082 671.956 95.0362L671.951 95.04C669.129 97.1567 664.754 98.12 659.031 98.12C653.109 98.12 648.36 96.6377 644.922 93.5433L644.916 93.5372L644.909 93.5311C641.449 90.3022 639.537 85.1583 638.994 78.3191L638.909 77.24H695.631ZM639.152 64.52L639.322 63.3735C640.196 57.4758 642.239 53.0012 645.578 50.1226C648.906 47.2539 653.432 45.88 659.031 45.88C664.618 45.88 669.136 47.1942 672.463 49.9444C675.94 52.7302 677.98 57.2883 678.744 63.396L678.884 64.52H639.152ZM671.831 50.72C668.738 48.16 664.471 46.88 659.031 46.88C653.591 46.88 649.325 48.2133 646.231 50.88C643.32 53.3899 641.401 57.2699 640.473 62.52C640.415 62.848 640.361 63.1813 640.311 63.52H677.751C677.709 63.1812 677.663 62.8478 677.612 62.52C676.777 57.0681 674.85 53.1348 671.831 50.72ZM764.287 41.4589C758.549 34.193 750.293 30.56 739.518 30.56C734.931 30.56 730.717 31.4133 726.878 33.12C723.037 34.72 719.677 37.12 716.797 40.32C714.024 43.4133 711.837 47.3067 710.237 52C708.638 56.5867 707.837 61.8667 707.837 67.84V72.96C707.837 79.2533 708.584 84.7467 710.078 89.44C711.677 94.0267 713.864 97.8667 716.638 100.96C719.518 104.053 722.878 106.4 726.717 108C730.557 109.493 734.824 110.24 739.518 110.24C744.318 110.24 748.691 109.44 752.638 107.84C756.137 106.421 759.217 104.416 761.878 101.823C762.218 101.492 762.551 101.151 762.878 100.8V112C762.878 118.507 761.491 123.2 758.717 126.08C755.944 129.067 751.677 130.56 745.917 130.56C740.904 130.56 737.277 129.6 735.037 127.68C732.797 125.76 731.251 122.933 730.397 119.2H711.837C711.872 119.536 711.91 119.87 711.95 120.2C712.414 123.952 713.283 127.299 714.557 130.24C716.051 133.547 718.184 136.32 720.957 138.56C723.731 140.8 727.144 142.507 731.198 143.68C735.357 144.853 740.264 145.44 745.917 145.44C758.078 145.44 767.037 142.613 772.797 136.96C778.557 131.413 781.438 123.093 781.438 112V32H766.878L765.117 42.56C764.847 42.1841 764.57 41.8171 764.287 41.4589ZM767.725 33L765.709 45.0931L764.306 43.1443C758.763 35.4465 750.557 31.56 739.518 31.56C735.058 31.56 730.984 32.389 727.284 34.0338L727.273 34.0386L727.262 34.0431C723.564 35.5838 720.326 37.8946 717.542 40.9875C714.874 43.9633 712.749 47.7325 711.184 52.3227L711.182 52.3294C709.626 56.789 708.837 61.954 708.837 67.84V72.96C708.837 79.1716 709.574 84.5542 711.026 89.1238C712.588 93.5974 714.71 97.3105 717.376 100.286C720.156 103.27 723.393 105.529 727.091 107.072C730.798 108.512 734.936 109.24 739.518 109.24C744.205 109.24 748.449 108.459 752.262 106.913C756.074 105.368 759.366 103.104 762.146 100.119L763.878 98.2584V112C763.878 118.607 762.477 123.613 759.444 126.768C756.414 130.026 751.834 131.56 745.917 131.56C740.819 131.56 736.898 130.591 734.387 128.439C732.107 126.485 730.534 123.711 729.613 120.2H712.958C713.415 123.82 714.257 127.028 715.472 129.834C716.902 132.998 718.938 135.644 721.586 137.782C724.238 139.924 727.526 141.576 731.473 142.719C735.522 143.86 740.331 144.44 745.917 144.44C757.946 144.44 766.6 141.641 772.097 136.246L772.104 136.24C777.602 130.945 780.438 122.929 780.438 112V33H767.725ZM732.157 88C728.957 84.5867 727.357 79.5733 727.357 72.96V67.84C727.357 61.0133 728.904 56 731.997 52.8C735.091 49.4933 739.464 47.84 745.117 47.84C750.237 47.84 754.451 49.6 757.758 53.12C761.171 56.64 762.878 61.5467 762.878 67.84V72.96C762.878 79.2533 761.171 84.16 757.758 87.68C754.451 91.2 750.237 92.96 745.117 92.96C739.677 92.96 735.357 91.3067 732.157 88ZM731.272 52.1113C727.927 55.5765 726.357 60.893 726.357 67.84V72.96C726.357 79.7222 727.994 85.0206 731.428 88.684L731.433 88.6897L731.439 88.6954C734.861 92.232 739.46 93.96 745.117 93.96C750.492 93.96 754.973 92.1013 758.48 88.3713C762.118 84.6164 763.878 79.4337 763.878 72.96V67.84C763.878 61.3664 762.118 56.1837 758.48 52.4288C754.973 48.6987 750.492 46.84 745.117 46.84C739.264 46.84 734.599 48.5582 731.272 52.1113ZM804.889 69.6C802.009 71.84 799.875 74.6667 798.489 78.08C797.209 81.3867 796.569 85.12 796.569 89.28C796.569 96.8533 798.809 102.773 803.289 107.04C807.769 111.307 814.329 113.44 822.969 113.44C828.622 113.44 833.635 112.373 838.009 110.24C842.061 108.31 845.415 105.595 848.071 102.095C848.351 101.725 848.624 101.347 848.889 100.96L850.809 112H865.369V57.6C865.369 49.3867 862.702 42.8267 857.369 37.92C852.035 33.0133 844.035 30.56 833.369 30.56C822.169 30.56 813.849 32.9067 808.409 37.6C803.326 41.9709 800.472 47.5043 799.845 54.2C799.814 54.5305 799.789 54.8638 799.769 55.2H819.929C820.355 52.4267 821.582 50.1867 823.609 48.48C825.635 46.7733 828.889 45.92 833.369 45.92C838.169 45.92 841.582 46.9333 843.609 48.96C845.742 50.88 846.809 53.76 846.809 57.6V62.4H833.369C826.649 62.4 820.942 63.04 816.249 64.32C811.662 65.4933 807.875 67.2533 804.889 69.6ZM844.297 48.2343C846.692 50.4018 847.809 53.5879 847.809 57.6V63.4H833.369C826.706 63.4 821.094 64.0351 816.512 65.2848L816.504 65.2868L816.497 65.2888C812.012 66.4359 808.361 68.1439 805.507 70.3863L805.503 70.3894C802.765 72.5187 800.74 75.2 799.418 78.4487C798.192 81.6203 797.569 85.2257 797.569 89.28C797.569 96.6454 799.74 102.279 803.978 106.316C808.209 110.345 814.483 112.44 822.969 112.44C828.495 112.44 833.354 111.398 837.57 109.341L837.579 109.337C841.901 107.279 845.391 104.301 848.063 100.395L849.452 98.3652L851.65 111H864.369V57.6C864.369 49.6252 861.791 43.3471 856.692 38.6559C851.614 33.9842 843.901 31.56 833.369 31.56C822.281 31.56 814.243 33.8875 809.062 38.3572L809.061 38.3582C804.202 42.5366 801.47 47.7992 800.85 54.2H819.097C819.667 51.5835 820.955 49.4077 822.965 47.7151C825.26 45.7822 828.802 44.92 833.369 44.92C838.252 44.92 841.989 45.9404 844.297 48.2343ZM834.703 97.5673L834.693 97.5713C832.109 98.5823 829.264 99.08 826.169 99.08C822.789 99.08 820.011 98.175 817.963 96.2482L817.952 96.2378L817.942 96.2271C816.012 94.2973 815.089 91.7303 815.089 88.64C815.089 84.7463 816.479 81.5734 819.289 79.2318C822.132 76.8619 826.921 75.8 833.369 75.8H847.809V79.2C847.809 81.9039 847.244 84.4513 846.112 86.8299C844.994 89.1763 843.487 91.296 841.596 93.1871L841.585 93.1978L841.574 93.2082C839.664 95.0063 837.372 96.4553 834.713 97.5631L834.703 97.5673ZM840.889 92.48C839.075 94.1867 836.889 95.5733 834.329 96.64C831.875 97.6 829.155 98.08 826.169 98.08C822.969 98.08 820.462 97.2267 818.649 95.52C816.942 93.8133 816.089 91.52 816.089 88.64C816.089 85.0133 817.369 82.1333 819.929 80C822.489 77.8667 826.969 76.8 833.369 76.8H846.809V79.2C846.809 81.76 846.275 84.16 845.209 86.4C844.142 88.64 842.702 90.6667 840.889 92.48ZM941.614 38.08C936.067 33.0667 928.227 30.56 918.094 30.56C912.44 30.56 907.267 31.4667 902.574 33.28C897.987 35.0933 894.04 37.7067 890.734 41.12C887.427 44.4267 884.867 48.48 883.054 53.28C881.347 58.08 880.494 63.4667 880.494 69.44V74.56C880.494 80.64 881.347 86.08 883.054 90.88C884.867 95.68 887.374 99.7867 890.574 103.2C893.88 106.507 897.827 109.067 902.414 110.88C907.107 112.587 912.334 113.44 918.094 113.44C928.227 113.44 936.067 110.933 941.614 105.92C947.042 101.004 950.601 94.5641 952.293 86.6C952.363 86.2693 952.43 85.936 952.494 85.6H932.654C931.8 88.5867 930.147 91.0933 927.694 93.12C925.347 95.1467 921.88 96.16 917.294 96.16C915.054 96.16 912.867 95.7333 910.734 94.88C908.707 94.0267 906.894 92.7467 905.294 91.04C903.694 89.2267 902.414 86.9867 901.454 84.32C900.494 81.5467 900.014 78.2933 900.014 74.56V69.44C900.014 65.6 900.44 62.3467 901.294 59.68C902.254 56.9067 903.534 54.6667 905.134 52.96C906.734 51.1467 908.547 49.8667 910.574 49.12C912.707 48.2667 914.947 47.84 917.294 47.84C921.347 47.84 924.707 48.7467 927.374 50.56C930.04 52.3733 931.8 54.72 932.654 57.6H952.494C952.427 57.264 952.356 56.9307 952.281 56.6C950.586 49.0561 947.03 42.8828 941.614 38.08ZM951.256 56.6C949.583 49.3447 946.145 43.4346 940.95 38.8282L940.943 38.8219C935.637 34.026 928.068 31.56 918.094 31.56C912.55 31.56 907.502 32.4487 902.938 34.2114C898.48 35.9745 894.655 38.5093 891.452 41.8158L891.446 41.8215L891.441 41.8271C888.246 45.0216 885.761 48.9474 883.993 53.623C882.333 58.2967 881.494 63.5649 881.494 69.44V74.56C881.494 80.544 882.333 85.8653 883.993 90.5374C885.762 95.2167 888.198 99.2008 891.293 102.505C894.492 105.701 898.313 108.181 902.768 109.945C907.333 111.603 912.438 112.44 918.094 112.44C928.068 112.44 935.637 109.974 940.943 105.178C946.15 100.463 949.6 94.2869 951.27 86.6H933.39C932.429 89.4661 930.739 91.8989 928.338 93.8845C925.741 96.123 922.003 97.16 917.294 97.16C914.923 97.16 912.611 96.7078 910.362 95.8085L910.354 95.8051L910.346 95.8016C908.182 94.8905 906.254 93.5263 904.564 91.7239L904.554 91.7129L904.544 91.7016C902.847 89.7789 901.508 87.424 900.513 84.6587L900.509 84.6471C899.504 81.7444 899.014 78.3758 899.014 74.56V69.44C899.014 65.5321 899.447 62.1694 900.341 59.3752L900.345 59.364L900.349 59.3529C901.342 56.4849 902.682 54.1167 904.395 52.2863C906.085 50.3739 908.025 48.9961 910.215 48.1865C912.465 47.2883 914.827 46.84 917.294 46.84C921.496 46.84 925.065 47.7811 927.936 49.7331C930.558 51.5158 932.386 53.8081 933.379 56.6H951.256ZM986.584 111.99L974.8 143H991.859L1033.5 33H1016.45L995.298 92.1708L972.82 33H954.83L986.584 111.99ZM953.35 32H973.51L995.27 89.28L1015.75 32H1034.95L992.55 144H973.35L985.51 112L953.35 32Z" fill="#FFBCBC"></path> </svg> 