<?xml version="1.0" encoding="UTF-8"?> <svg xmlns="http://www.w3.org/2000/svg" width="402" height="142" viewBox="0 0 402 142" fill="none"> <path fill-rule="evenodd" clip-rule="evenodd" d="M43 21.2V140H67V21.2H110V0H0V21.2H43ZM1 20.2H44V139H66V20.2H109V1H1V20.2ZM151.016 1H129.016V139H151.016V1ZM182.861 128.526C190.361 136.671 200.999 140.8 214.922 140.8C229.112 140.8 240.092 136.603 247.996 128.312C255.888 119.9 259.922 107.192 259.922 90V1H237.922V90C237.922 100.608 235.918 108.445 231.677 113.256C227.593 118.04 221.965 120.4 214.922 120.4C207.824 120.4 202.248 118.114 198.354 113.44C194.63 108.972 192.548 102.446 191.98 94H169.998C171.179 108.932 175.5 120.403 182.861 128.526ZM182.122 129.2C174.555 120.85 170.179 109.117 168.995 94C168.969 93.6683 168.945 93.335 168.922 93H192.922C193.855 110.6 201.189 119.4 214.922 119.4C221.722 119.4 227.055 117.133 230.922 112.6C234.922 108.067 236.922 100.533 236.922 90V0H260.922V90C260.922 107.333 256.855 120.333 248.722 129C240.589 137.533 229.322 141.8 214.922 141.8C200.789 141.8 189.855 137.6 182.122 129.2ZM369.553 92L321.553 0H287.953V140H311.953V29.8L320.353 48L368.353 140H401.953V0H377.953V110.4L369.553 92ZM378.953 1V110.4L377.043 110.815L368.654 92.4394L320.947 1H288.953V139H310.953V29.8L312.861 29.381L321.251 47.5587L368.959 139H400.953V1H378.953ZM128.016 0V140H152.016V0H128.016Z" fill="#FFBCBC"></path> </svg> 